<?xml version="1.0" encoding="utf-8"?>
<!-- Generator: Adobe Illustrator 16.0.0, SVG Export Plug-In . SVG Version: 6.00 Build 0)  -->
<!DOCTYPE svg PUBLIC "-//W3C//DTD SVG 1.1//EN" "http://www.w3.org/Graphics/SVG/1.1/DTD/svg11.dtd">
<svg version="1.1" id="Layer_1" xmlns="http://www.w3.org/2000/svg" xmlns:xlink="http://www.w3.org/1999/xlink" x="0px" y="0px"
	 width="240px" height="240px" viewBox="0 0 240 240" enable-background="new 0 0 240 240" xml:space="preserve">
<path fill-rule="evenodd" clip-rule="evenodd" fill="#E9EDEE" d="M144.239,158.88c0,0,2.956,10.122,21.121,9.36
	c17.176-0.721,36.72-16.747,36.72,6c0,11.046,0,23.52,0,23.52s0.03,1.68-2.119,1.68c-9.525,0-48.188,0-54.28,0
	c-1.421,0-1.441-1.439-1.441-1.439V158.88z"/>
<path fill-rule="evenodd" clip-rule="evenodd" fill="#E9EDEE" d="M166.8,88.8h12.96c2.649,0,2.649,1.678,0,1.678H166.8
	C164.398,90.478,164.398,88.8,166.8,88.8z"/>
<path fill-rule="evenodd" clip-rule="evenodd" fill="#E9EDEE" d="M164.4,40.08c0,0,33.78,0,35.76,0s1.92,2.4,1.92,2.4V157.2
	c0,1.097-0.449-2.457-6.48-3.12c-6.22,0-12.96,2.395-12.96,2.395c-2.017,0-2.88-1.289-2.88-2.88V42.96
	C179.76,40.078,162.81,40.08,164.4,40.08z"/>
<path fill-rule="evenodd" clip-rule="evenodd" fill="#E9EDEE" d="M147.36,40.08h34.8c1.59,0-15.36,0-15.36,2.88v113.995
	c0,1.59-0.658,2.776-2.16,3.125c-3.033,0.496-3.01,0.239-5.04,0.239c-4.923,0-15.119-5.019-15.119-15.844V42.96
	C144.48,41.369,145.77,40.08,147.36,40.08z"/>
<path fill-rule="evenodd" clip-rule="evenodd" fill="#E9EDEE" d="M180.113,43.396c0,0-3.354-1.895-6.594-1.895
	c-3.352,0-6.473,1.895-6.473,1.895c-0.596,0-1.199,0.233-1.199-0.355c0-0.588-0.116-2.96,0.479-2.96h14.146
	c0.596,0,0.479,2.253,0.479,2.842S180.71,43.396,180.113,43.396z"/>
<path fill-rule="evenodd" clip-rule="evenodd" fill="#E9EDEE" d="M59.16,196.073c0,0,3.357,1.92,6.6,1.92
	c3.355,0,6.48-1.92,6.48-1.92c0.596,0,1.2-0.237,1.2,0.359s0.117,3-0.48,3H58.8c-0.596,0-0.48-2.284-0.48-2.88
	C58.32,195.956,58.563,196.073,59.16,196.073z"/>
<path fill-rule="evenodd" clip-rule="evenodd" fill="#E9EDEE" d="M94.92,196.073c0,0,3.357,1.92,6.6,1.92
	c3.355,0,6.48-1.92,6.48-1.92c0.596,0,1.2-0.237,1.2,0.359s0.117,3-0.48,3H94.56c-0.597,0-0.48-2.284-0.48-2.88
	C94.08,195.956,94.324,196.073,94.92,196.073z"/>
<path fill-rule="evenodd" clip-rule="evenodd" fill="#E9EDEE" d="M110.88,40.08h16.56c1.591,0,2.88,1.289,2.88,2.88v137.993
	c0,13.845-8.951,18.479-16.799,18.479H108v-4.08V42.96C108,41.369,109.29,40.08,110.88,40.08z"/>
<path fill-rule="evenodd" clip-rule="evenodd" fill="#E9EDEE" d="M75.36,40.08h16.56c1.591,0,2.88,1.289,2.88,2.88v152.393v4.08
	H72.48v-4.08V42.96C72.48,41.369,73.77,40.08,75.36,40.08z"/>
<path fill-rule="evenodd" clip-rule="evenodd" fill="#E9EDEE" d="M52.8,40.08h3.6c1.591,0,2.88,1.289,2.88,2.88v152.393v4.08H38.64
	c0,0-1.68,0.199-1.68-1.92c0-2.12,0-140.394,0-140.394C36.96,40.08,51.209,40.08,52.8,40.08z"/>
</svg>
