<?xml version="1.0" encoding="UTF-8" standalone="no"?>
<!-- Created with Inkscape (http://www.inkscape.org/) -->

<svg
   xmlns:dc="http://purl.org/dc/elements/1.1/"
   xmlns:cc="http://creativecommons.org/ns#"
   xmlns:rdf="http://www.w3.org/1999/02/22-rdf-syntax-ns#"
   xmlns:svg="http://www.w3.org/2000/svg"
   xmlns="http://www.w3.org/2000/svg"
   xmlns:sodipodi="http://sodipodi.sourceforge.net/DTD/sodipodi-0.dtd"
   xmlns:inkscape="http://www.inkscape.org/namespaces/inkscape"
   version="1.1"
   id="svg5102"
   width="101.76"
   height="101.76"
   viewBox="0 0 101.76 101.76"
   sodipodi:docname="work.svg"
   inkscape:version="0.92.4 (5da689c313, 2019-01-14)">
  <metadata
     id="metadata5108">
    <rdf:RDF>
      <cc:Work
         rdf:about="">
        <dc:format>image/svg+xml</dc:format>
        <dc:type
           rdf:resource="http://purl.org/dc/dcmitype/StillImage" />
        <dc:title></dc:title>
      </cc:Work>
    </rdf:RDF>
  </metadata>
  <defs
     id="defs5106" />
  <sodipodi:namedview
     pagecolor="#ffffff"
     bordercolor="#666666"
     borderopacity="1"
     objecttolerance="10"
     gridtolerance="10"
     guidetolerance="10"
     inkscape:pageopacity="0"
     inkscape:pageshadow="2"
     inkscape:window-width="1920"
     inkscape:window-height="1017"
     id="namedview5104"
     showgrid="false"
     inkscape:zoom="3.2798191"
     inkscape:cx="42.967341"
     inkscape:cy="63.119087"
     inkscape:window-x="-8"
     inkscape:window-y="-8"
     inkscape:window-maximized="1"
     inkscape:current-layer="layer5" />
  <g
     inkscape:groupmode="layer"
     id="layer5"
     inkscape:label="Layer 2">
    <path
       style="display:inline;fill:#ececec;stroke-width:0.63999999"
       d="M 49.643839,99.782278 C 27.675451,99.748166 11.595416,99.470157 10.316554,99.102355 9.1266592,98.760147 7.4588557,98.025267 6.6103245,97.469286 5.7617937,96.913306 4.2873442,95.13127 3.3337704,93.50921 L 1.6,90.56 1.4207219,51.910097 C 1.2664179,18.644262 1.3786545,12.788207 2.2264204,9.8719949 2.9322888,7.4438931 3.8637941,5.9460338 5.5137162,4.5860287 6.7799917,3.5422573 9.0094272,2.3607036 10.468018,1.9603537 12.241827,1.4734832 19.159961,1.2933005 31.36,1.4162223 L 49.6,1.6 49.789233,6.2991999 c 0.106237,2.6381684 -0.105583,5.0544321 -0.482955,5.5091371 -0.369703,0.445465 -2.373514,0.98776 -4.452914,1.2051 -2.079399,0.217341 -5.686728,1.112582 -8.016288,1.989426 -2.32956,0.876845 -5.797688,2.631141 -7.706951,3.898438 -1.909264,1.267297 -5.078792,4.040364 -7.043396,6.162371 -1.964605,2.122007 -4.572924,5.845748 -5.796265,8.274978 -1.223341,2.429231 -2.648896,6.217811 -3.1679,8.419066 -0.519004,2.201257 -0.947901,6.173776 -0.953104,8.827821 -0.0052,2.654045 0.42687,6.542045 0.96016,8.64 0.533292,2.097955 2.018015,5.961119 3.299384,8.584812 1.664504,3.408192 3.626327,6.059929 6.87038,9.286489 3.124176,3.107341 6.03797,5.266669 9.340616,6.922074 2.64,1.323264 6.816,2.827341 9.28,3.3424 2.464,0.515053 6.064,0.936461 8,0.936461 1.936,0 5.498818,-0.419239 7.917373,-0.931648 2.418556,-0.51241 6.581206,-2.010701 9.250333,-3.329543 3.430169,-1.69488 6.175104,-3.720652 9.362624,-6.909657 3.086617,-3.088045 5.273369,-6.022515 6.929824,-9.299347 1.511424,-2.989914 2.806995,-6.830217 3.450393,-10.227578 0.566631,-2.992 1.128845,-5.811281 1.249376,-6.265069 0.16265,-0.612364 1.665549,-0.777359 5.829613,-0.64 L 99.52,50.88 99.690336,68.760659 c 0.139008,14.592115 -0.01114,18.504967 -0.816461,21.27513 -0.620653,2.134976 -1.810003,4.21767 -3.205414,5.613081 -1.360173,1.360173 -3.503635,2.600231 -5.539699,3.204877 -2.835412,0.842023 -8.755911,0.977811 -40.484923,0.928531 z M 49.28,83.120346 C 48.4,83.081882 46.096,82.790662 44.16,82.473254 42.224,82.15584 38.557765,80.910445 36.012811,79.705702 33.467857,78.50096 29.896092,76.130323 28.075553,74.437632 26.255016,72.744934 23.844221,69.92 22.718231,68.16 21.592242,66.4 20.061528,63.318643 19.316646,61.312541 18.571764,59.306438 17.772804,55.81534 17.541178,53.554543 c -0.242022,-2.362275 -0.09787,-5.982764 0.338926,-8.51254 0.418036,-2.421102 1.749527,-6.466464 2.958872,-8.989695 1.437446,-2.999153 3.500683,-5.889567 5.958614,-8.347498 2.067894,-2.067894 5.479197,-4.676232 7.580672,-5.796307 2.101476,-1.120075 5.666062,-2.471444 7.921302,-3.003042 C 44.554804,18.373864 47.984,17.93892 49.92,17.93892 c 1.936,0 5.365196,0.434944 7.620436,0.966541 2.25524,0.531598 5.726696,1.833329 7.714348,2.892735 1.987648,1.059407 4.976685,3.232047 6.642298,4.828088 1.665612,1.596042 4.017875,4.394055 5.227244,6.217805 1.209364,1.823751 2.764922,4.964063 3.456788,6.97847 0.691872,2.014407 1.444736,5.614407 1.673036,8 0.277812,2.90299 0.09679,5.843804 -0.547353,8.892328 -0.529344,2.505188 -1.885479,6.38341 -3.013632,8.618271 -1.204845,2.386784 -3.713274,5.725472 -6.079399,8.091597 -2.80064,2.800634 -5.45831,4.701581 -8.720989,6.23785 C 61.31175,80.877907 57.328,82.168813 55.04,82.53129 c -2.288,0.36247 -4.88,0.627545 -5.76,0.589056 z m 44.100934,-38.458388 -6.139065,0.181958 -1.144135,-4.22676 c -0.656358,-2.424792 -0.904025,-4.460808 -0.580934,-4.77575 0.30976,-0.301944 3.398944,-1.607638 6.864858,-2.901542 3.941612,-1.471495 6.527398,-2.126809 6.904422,-1.749783 0.331526,0.331523 0.519776,3.457378 0.418342,6.946344 L 99.52,44.48 Z M 82.793293,31.36 c -0.361351,0 -1.055315,-0.744259 -1.542144,-1.653909 -0.815207,-1.523224 -0.760538,-1.749527 0.691853,-2.864012 0.867347,-0.665557 4.924019,-3.665298 9.014822,-6.666091 4.090803,-3.000794 7.762803,-5.455988 8.16,-5.455988 0.445773,0 0.718426,1.285986 0.712378,3.36 -0.0051,1.848 -0.221389,3.677873 -0.48,4.066385 -0.258612,0.388511 -3.941882,2.620511 -8.18505,4.96 C 86.921984,29.445873 83.15465,31.36 82.793293,31.36 Z"
       id="path5658"
       inkscape:connector-curvature="0" />
  </g>
</svg>
